#!OML:ASF X:\für Bonn\!DataBase\2005_08_12_Daniel\c3d\Daniel.ASF
:FULLY-SPECIFIED
:DEGREES
324
root 1.46748 17.1135 -13.6047 350.528 20.6011 -2.69317
lowerback 31.5344 -1.01509 1.20741
upperback 7.18527 -1.07084 -2.77392
thorax -9.20412 -0.477133 -3.46077
lowerneck 1.67365 -4.27232 -3.34558
upperneck 10.005 -6.21649 6.92435
head 3.32861 -2.9793 2.72852
rclavicle -2.70347e-014 2.54444e-014
rhumerus -18.4668 16.7764 -94.3942
rradius 47.4194
rwrist -40.4102
rhand -4.60216 11.0507
rfingers 7.12502
rthumb 21.1756 -17.8128
lclavicle -2.70347e-014 2.54444e-014
lhumerus -21.8806 28.5983 77.9038
lradius 27.0653
lwrist -21.7215
lhand -11.325 -6.96575
lfingers 7.12502
lthumb 14.7074 22.4926
rfemur -9.83527 -8.04016 16.0047
rtibia 51.0118
rfoot -16.902 -357.892
rtoes -11.9789
lfemur -12.1705 -5.11244 -19.8494
ltibia 48.3294
lfoot -26.686 -9.69731
ltoes -2.28996
325
root 1.49323 17.1425 -13.5604 350.451 20.581 -2.67753
lowerback 31.0138 -1.0302 1.01574
upperback 7.05622 -1.16699 -2.84672
thorax -9.10956 -0.522471 -3.39215
lowerneck 1.52192 -4.25062 -3.24998
upperneck 10.2658 -6.20466 6.95288
head 3.44432 -2.96247 2.71949
rclavicle 6.95746e-014 -1.82882e-014
rhumerus -18.7028 16.3938 -94.4273
rradius 47.6793
rwrist -41.3456
rhand -4.0512 10.9971
rfingers 7.12502
rthumb 21.7048 -17.8061
lclavicle 6.95746e-014 -1.82882e-014
lhumerus -21.8508 28.8291 77.6169
lradius 26.7774
lwrist -21.845
lhand -11.3964 -6.89437
lfingers 7.12502
lthumb 14.6386 22.5689
rfemur -9.85193 -7.35325 16.1922
rtibia 51.2268
rfoot -16.322 -358.938
rtoes -12.4381
lfemur -11.3787 -5.47413 -20.0139
ltibia 47.5182
lfoot -26.6306 -9.30114
ltoes -2.24425
326
root 1.51888 17.1714 -13.5166 350.358 20.5874 -2.64261
lowerback 30.5633 -1.06021 0.787394
upperback 6.90779 -1.28942 -2.897
thorax -9.0689 -0.580021 -3.26822
lowerneck 1.45 -4.21215 -3.19581
upperneck 10.4714 -6.16616 6.95946
head 3.52533 -2.93693 2.71271
rclavicle -7.27552e-014 5.56597e-014
rhumerus -18.9358 16.1157 -94.4215
rradius 47.9395
rwrist -42.3395
rhand -3.51149 11.042
rfingers 7.12502
rthumb 22.223 -17.7005
lclavicle -7.27552e-014 5.56597e-014
lhumerus -21.906 29.1118 77.3219
lradius 26.4885
lwrist -22.0222
lhand -11.4655 -6.86918
lfingers 7.12502
lthumb 14.5721 22.599
rfemur -9.89114 -6.63683 16.3643
rtibia 51.5378
rfoot -15.8024 -360.019
rtoes -12.6201
lfemur -10.5644 -5.83286 -20.2035
ltibia 46.7144
lfoot -26.5775 -8.93108
ltoes -2.16514
327
root 1.54367 17.1994 -13.4718 350.262 20.5732 -2.60978
lowerback 30.1304 -1.08027 0.575232
upperback 6.76319 -1.39349 -2.95925
thorax -9.02932 -0.62918 -3.17533
lowerneck 1.31029 -4.18714 -3.15331
upperneck 10.7266 -6.15329 7.02341
head 3.64187 -2.92047 2.72643
rclavicle 1.47101e-014 -1.43125e-014
rhumerus -19.1697 15.7105 -94.4426
rradius 48.2533
rwrist -43.2288
rhand -3.01705 11.0307
rfingers 7.12502
rthumb 22.6976 -17.6544
lclavicle 1.47101e-014 -1.43125e-014
lhumerus -21.9291 29.4122 77.0047
lradius 26.1582
lwrist -22.3239
lhand -11.5847 -6.80972
lfingers 7.12502
lthumb 14.4571 22.6667
rfemur -9.9803 -5.92407 16.5605
rtibia 51.9233
rfoot -15.298 -361.069
rtoes -12.692
lfemur -9.74941 -6.15277 -20.384
ltibia 45.9067
lfoot -26.5192 -8.57811
ltoes -2.10408
328
root 1.56887 17.2279 -13.4272 350.16 20.5816 -2.55919
lowerback 29.7231 -1.11463 0.318731
upperback 6.6324 -1.52447 -3.00112
thorax -8.9842 -0.689458 -3.02455
lowerneck 1.10017 -4.15438 -3.12089
upperneck 11.0181 -6.1273 7.0384
head 3.78249 -2.89747 2.72473
rclavicle 1.90833e-014 6.36111e-015
rhumerus -19.378 15.3424 -94.4631
rradius 48.5905
rwrist -44.1405
rhand -2.61233 11.0638
rfingers 7.12502
rthumb 23.086 -17.5732
lclavicle 1.90833e-014 6.36111e-015
lhumerus -21.9614 29.7808 76.7059
lradius 25.8251
lwrist -22.6357
lhand -11.6637 -6.78908
lfingers 7.12502
lthumb 14.381 22.6928
rfemur -10.0901 -5.28924 16.7381
rtibia 52.3619
rfoot -14.7932 -362.121
rtoes -12.9312
lfemur -8.92087 -6.4933 -20.5955
ltibia 45.0987
lfoot -26.4942 -8.20596
ltoes -2.15963
329
root 1.59322 17.2531 -13.3826 350.091 20.5906 -2.48458
lowerback 29.3135 -1.1468 0.054334
upperback 6.50476 -1.65412 -3.05564
thorax -8.93196 -0.748881 -2.88522
lowerneck 0.831878 -4.13437 -3.08983
upperneck 11.3257 -6.12158 7.07492
head 3.94338 -2.8823 2.72955
rclavicle 2.74323e-014 -1.11319e-014
rhumerus -19.5909 14.9015 -94.4746
rradius 49.0511
rwrist -45.1384
rhand -2.19728 11.0385
rfingers 7.12502
rthumb 23.4842 -17.5482
lclavicle 2.74323e-014 -1.11319e-014
lhumerus -21.9421 30.2355 76.3979
lradius 25.4241
lwrist -23.0725
lhand -11.7527 -6.81716
lfingers 7.12502
lthumb 14.2953 22.6708
rfemur -10.2603 -4.71953 16.8969
rtibia 52.8563
rfoot -14.3178 -363.102
rtoes -13.1233
lfemur -8.12564 -6.83411 -20.8321
ltibia 44.2946
lfoot -26.4427 -7.85208
ltoes -2.18953
330
root 1.61746 17.2769 -13.3383 349.99 20.605 -2.43191
lowerback 28.9613 -1.19163 -0.189138
upperback 6.37564 -1.79033 -3.08926
thorax -8.90752 -0.811591 -2.73327
lowerneck 0.616658 -4.11267 -3.15016
upperneck 11.6078 -6.11482 7.15253
head 4.09214 -2.87034 2.76681
rclavicle 4.37326e-014 9.54166e-015
rhumerus -19.8536 14.4342 -94.4872
rradius 49.6039
rwrist -45.987
rhand -1.81404 11.0508
rfingers 7.12502
rthumb 23.8517 -17.4883
lclavicle 4.37326e-014 9.54166e-015
lhumerus -21.9594 30.7283 76.0585
lradius 25.0062
lwrist -23.5627
lhand -11.7921 -6.88052
lfingers 7.12502
lthumb 14.2573 22.6101
rfemur -10.4254 -4.18965 17.0797
rtibia 53.3951
rfoot -13.8507 -364.009
rtoes -13.0793
lfemur -7.31802 -7.13701 -21.0419
ltibia 43.5069
lfoot -26.4364 -7.51392
ltoes -2.38594
331
root 1.64133 17.2991 -13.2929 349.92 20.6301 -2.35666
lowerback 28.5884 -1.22807 -0.446257
upperback 6.26071 -1.91794 -3.1319
thorax -8.85402 -0.869659 -2.58778
lowerneck 0.322402 -4.10439 -3.18969
upperneck 12.2751 -6.17568 7.45376
head 3.93064 -2.85117 2.58395
rclavicle 1.70955e-014 7.95139e-015
rhumerus -20.1244 13.8328 -94.5111
rradius 50.2868
rwrist -46.7745
rhand -1.47644 10.9969
rfingers 7.12502
rthumb 24.1755 -17.4996
lclavicle 1.70955e-014 7.95139e-015
lhumerus -21.9459 31.3343 75.7224
lradius 24.5769
lwrist -24.315
lhand -11.8685 -6.912
lfingers 7.12502
lthumb 14.1837 22.5838
rfemur -10.6467 -3.77469 17.2267
rtibia 53.9944
rfoot -13.3645 -364.808
rtoes -12.8953
lfemur -6.53928 -7.43316 -21.2792
ltibia 42.7349
lfoot -26.4544 -7.1929
ltoes -2.65324
332
root 1.66523 17.3211 -13.2483 349.88 20.6769 -2.26829
lowerback 28.2055 -1.28468 -0.696382
upperback 6.14709 -2.06791 -3.18073
thorax -8.79341 -0.938466 -2.44671
lowerneck 0.0276034 -4.08874 -3.26547
upperneck 12.6841 -6.18879 7.56635
head 4.10962 -2.84154 2.62193
rclavicle -1.70955e-014 2.22639e-014
rhumerus -20.4485 13.206 -94.5395
rradius 51.1302
rwrist -47.5276
rhand -1.18729 10.9836
rfingers 7.12502
rthumb 24.4527 -17.4756
lclavicle -1.70955e-014 2.22639e-014
lhumerus -21.907 31.8443 75.398
lradius 24.1384
lwrist -24.9561
lhand -11.8796 -6.91371
lfingers 7.12502
lthumb 14.173 22.5828
rfemur -10.9203 -3.47784 17.335
rtibia 54.6455
rfoot -12.8666 -365.462
rtoes -12.3544
lfemur -5.8059 -7.76939 -21.5325
ltibia 41.9894
lfoot -26.4762 -6.85572
ltoes -2.77213
333
root 1.68821 17.3391 -13.2045 349.82 20.7184 -2.19229
lowerback 27.8683 -1.33822 -0.971699
upperback 6.0371 -2.21703 -3.20054
thorax -8.74694 -1.00594 -2.25989
lowerneck -0.27759 -4.06958 -3.39192
upperneck 13.1428 -6.19938 7.6871
head 4.30747 -2.83101 2.67093
rclavicle -7.95139e-016 5.725e-014
rhumerus -20.7882 12.5123 -94.5473
rradius 52.083
rwrist -48.2133
rhand -0.829747 10.8952
rfingers 7.12502
rthumb 24.7954 -17.5174
lclavicle -7.95139e-016 5.725e-014
lhumerus -21.9195 32.5675 75.0408
lradius 23.695
lwrist -25.843
lhand -11.8545 -7.03774
lfingers 7.12502
lthumb 14.1972 22.4571
rfemur -11.2009 -3.30294 17.4314
rtibia 55.336
rfoot -12.3946 -365.968
rtoes -11.5395
lfemur -5.08267 -8.04258 -21.7599
ltibia 41.2725
lfoot -26.4995 -6.57882
ltoes -3.03413
334
root 1.71128 17.3561 -13.1609 349.781 20.7637 -2.10043
lowerback 27.5058 -1.39638 -1.23425
upperback 5.93707 -2.36693 -3.23342
thorax -8.67543 -1.07419 -2.09646
lowerneck -0.456708 -4.05934 -3.5275
upperneck 13.479 -6.21933 7.83967
head 4.44912 -2.8292 2.73449
rclavicle 8.3092e-014 -9.54166e-015
rhumerus -21.1716 11.7427 -94.5656
rradius 53.1798
rwrist -48.765
rhand -0.489482 10.7643
rfingers 7.12502
rthumb 25.1215 -17.603
lclavicle 8.3092e-014 -9.54166e-015
lhumerus -21.8814 33.1814 74.7151
lradius 23.2146
lwrist -26.7046
lhand -11.9518 -7.06288
lfingers 7.12502
lthumb 14.1035 22.4385
rfemur -11.5105 -3.1612 17.5112
rtibia 56.0583
rfoot -11.9612 -366.349
rtoes -10.748
lfemur -4.3984 -8.30605 -22.0076
ltibia 40.5994
lfoot -26.567 -6.26003
ltoes -3.34358
335
root 1.73326 17.3708 -13.1176 349.747 20.7971 -2.02067
lowerback 27.1631 -1.455 -1.50708
upperback 5.82782 -2.51859 -3.2562
thorax -8.62109 -1.14304 -1.91645
lowerneck -0.606622 -4.04596 -3.65981
upperneck 13.8215 -6.23531 7.98473
head 4.58757 -2.82602 2.79645
rclavicle 2.78299e-015 3.18055e-015
rhumerus -21.601 11.0206 -94.5905
rradius 54.369
rwrist -49.3655
rhand -0.101646 10.6085
rfingers 7.12502
rthumb 25.493 -17.7062
lclavicle 2.78299e-015 3.18055e-015
lhumerus -21.8511 33.8226 74.359
lradius 22.6991
lwrist -27.6101
lhand -12.0097 -7.15546
lfingers 7.12502
lthumb 14.0476 22.3498
rfemur -11.8454 -3.076 17.6009
rtibia 56.7855
rfoot -11.6055 -366.61
rtoes -9.93009
lfemur -3.74833 -8.58639 -22.2412
ltibia 39.9804
lfoot -26.64 -5.95364
ltoes -3.57275
336
root 1.75488 17.3812 -13.077 349.752 20.8521 -1.92491
lowerback 26.7979 -1.50806 -1.7707
upperback 5.7308 -2.65693 -3.27643
thorax -8.53928 -1.20587 -1.74521
lowerneck -0.741514 -4.06132 -3.80548
upperneck 14.1163 -6.28893 8.14421
head 4.71249 -2.84241 2.86392
rclavicle 4.8901e-014 3.18055e-015
rhumerus -22.0228 10.2803 -94.576
rradius 55.6358
rwrist -49.9583
rhand 0.27218 10.484
rfingers 7.12502
rthumb 25.851 -17.7791
lclavicle 4.8901e-014 3.18055e-015
lhumerus -21.8162 34.525 74.0515
lradius 22.2289
lwrist -28.6793
lhand -12.1112 -7.19119
lfingers 7.12502
lthumb 13.9498 22.3208
rfemur -12.2425 -3.07594 17.6547
rtibia 57.5265
rfoot -11.3235 -366.679
rtoes -9.38251
lfemur -3.18592 -8.83455 -22.4759
ltibia 39.4205
lfoot -26.7537 -5.68164
ltoes -3.79599
